<?xml version="1.0" encoding="UTF-8"?>
<svg version="1.1" xmlns="http://www.w3.org/2000/svg" width="1254" height="1254">
<path d="M0 0 C1.56406158 -0.0016519 3.12812274 -0.00373921 4.69218323 -0.0062201 C8.98838574 -0.01176737 13.28456825 -0.0111179 17.5807732 -0.00944251 C22.25562055 -0.00870985 26.93046232 -0.01373803 31.60530728 -0.01801753 C40.87658055 -0.02558969 50.14784806 -0.02779019 59.4191241 -0.02834659 C70.5247956 -0.029261 81.63046178 -0.03593086 92.73613099 -0.04269341 C119.57751108 -0.05874787 146.41889059 -0.06465608 173.26027462 -0.06944216 C185.96011016 -0.07177867 198.65994524 -0.07538139 211.35978042 -0.07913754 C254.15847408 -0.09177149 296.95716771 -0.1025849 339.75586316 -0.10597799 C341.80077951 -0.10614023 343.84569586 -0.10630579 345.89061221 -0.10647238 C349.99159701 -0.10680617 354.09258182 -0.10713665 358.19356662 -0.10746694 C362.99463337 -0.10785383 367.79570011 -0.10824344 372.59676686 -0.108638 C373.97086139 -0.10875042 375.34495591 -0.10886184 376.71905044 -0.10897225 C420.83751863 -0.11252065 464.95597053 -0.12759522 509.0744325 -0.15091 C556.41249897 -0.17591607 603.750554 -0.19029566 651.08862847 -0.19150805 C656.21125678 -0.19167951 661.33388509 -0.19189493 666.4565134 -0.19214249 C667.71783206 -0.19219826 668.97915071 -0.19225402 670.27869114 -0.19231148 C690.56482029 -0.19346146 710.85093256 -0.20447898 731.13705601 -0.21902954 C751.53294224 -0.2334057 771.92880685 -0.23662519 792.32469676 -0.22858956 C804.43575207 -0.2241386 816.54673755 -0.2279726 828.65778366 -0.24382807 C836.75712123 -0.25359924 844.85641003 -0.25237944 852.95574719 -0.24239184 C857.56435832 -0.23701525 862.17283564 -0.23623962 866.78143553 -0.24890056 C903.3599983 -0.34293395 936.05559634 3.99410434 968.78632641 21.20711136 C970.33988363 22.0195102 971.90687718 22.8061053 973.47577953 23.58845901 C1015.18739479 44.9995988 1045.82090541 86.39254903 1060.55390453 130.13142776 C1068.25795526 154.37398263 1068.99991191 178.22804925 1068.94550856 203.43223269 C1068.93874495 208.11661579 1068.94949162 212.80096631 1068.9579044 217.48534226 C1068.9702314 225.67971743 1068.97150095 233.8740353 1068.96535397 242.0684166 C1068.95623738 254.2542678 1068.9643154 266.44006632 1068.97564521 278.6259135 C1068.99528657 300.39503804 1068.99766437 322.16413874 1068.99245001 343.93327003 C1068.98788856 362.98657205 1068.98849734 382.03986464 1068.99429035 401.09316635 C1068.99504723 403.65133983 1068.99580321 406.20951332 1068.9965583 408.7676868 C1068.99770352 412.622875 1068.9988534 416.4780632 1069.00001754 420.33325139 C1069.01071877 456.16392592 1069.01548326 491.99459653 1069.00754738 527.82527161 C1069.00732492 528.83744603 1069.00732492 528.83744603 1069.00709797 529.87006842 C1069.00543911 537.39387155 1069.00368952 544.91767465 1069.00190496 552.44147775 C1069.00174393 553.12070999 1069.00158291 553.79994223 1069.001417 554.49975726 C1069.00010974 560.01005158 1069.00010974 560.01005158 1068.99945581 562.74031329 C1068.98906584 606.18092145 1068.99683072 649.62148909 1069.02045727 693.06209183 C1069.02640114 704.00866438 1069.03229291 714.95523695 1069.03786659 725.90180969 C1069.03821036 726.57592187 1069.03855413 727.25003405 1069.03890832 727.94457387 C1069.05737043 764.38055619 1069.05765531 800.81653725 1069.05226952 837.25252366 C1069.05155349 842.37982448 1069.05087909 847.50712529 1069.05022907 852.63442612 C1069.05005926 853.8968438 1069.04988945 855.15926148 1069.0497145 856.45993424 C1069.04741399 875.4952139 1069.05537667 894.53047158 1069.06852055 913.56574631 C1069.08344658 935.22024419 1069.08425511 956.87469061 1069.06644963 978.52918741 C1069.05690272 990.63745772 1069.05828862 1002.74560793 1069.07568432 1014.85387017 C1069.08620565 1022.95483203 1069.08202879 1031.05570279 1069.06620429 1039.15665574 C1069.05760732 1043.76358196 1069.05506164 1048.37027357 1069.0704736 1052.97718737 C1069.24309763 1108.47172003 1054.77575388 1157.4864344 1015.55390453 1198.13142776 C1014.71730297 1199.03119339 1013.88070141 1199.93095901 1013.01874828 1200.85799026 C984.47840191 1230.73280231 938.96888508 1253.00994397 897.35158934 1254.22491589 C893.32936222 1254.26250393 889.3081983 1254.26801138 885.28584862 1254.26285553 C883.71669108 1254.26450651 882.14753396 1254.2665934 880.57837752 1254.26907563 C876.25871544 1254.27463471 871.93907321 1254.27397125 867.6194087 1254.27229804 C862.92263704 1254.27156654 858.22587095 1254.27659085 853.52910167 1254.28087306 C844.21006475 1254.288452 834.89103355 1254.29064607 825.57199387 1254.29120212 C814.41086244 1254.29211587 803.24973631 1254.29878376 792.08860716 1254.30554894 C765.11130422 1254.32161053 738.13400184 1254.32751248 711.15669498 1254.33229769 C698.39420973 1254.33463355 685.63172493 1254.33823621 672.86924003 1254.34199307 C629.8655391 1254.35462779 586.86183834 1254.36544103 543.85813565 1254.36883352 C541.8030519 1254.36899576 539.74796815 1254.36916132 537.6928844 1254.36932791 C533.57145837 1254.3696617 529.45003234 1254.36999218 525.32860631 1254.37032247 C520.50353292 1254.37070936 515.67845954 1254.37109897 510.85338615 1254.37149353 C509.47241673 1254.37160595 508.09144731 1254.37171737 506.71047789 1254.37182778 C462.37065533 1254.37537624 418.03084899 1254.39045059 373.69103261 1254.41376553 C326.12351202 1254.43876754 278.55600456 1254.453151 230.9884761 1254.45436358 C225.84169948 1254.45453504 220.69492286 1254.45475047 215.54814625 1254.45499802 C214.28086715 1254.45505379 213.01358805 1254.45510955 211.70790655 1254.45516701 C191.31899089 1254.45631737 170.93009202 1254.46733812 150.54118202 1254.48188507 C130.04426766 1254.49625611 109.5473748 1254.49948362 89.05045678 1254.49144509 C76.87678134 1254.48699166 64.70317535 1254.49083806 52.52950905 1254.5066836 C44.3909125 1254.5164462 36.25236451 1254.5152431 28.11376838 1254.50524737 C23.48105882 1254.49986461 18.84848246 1254.49911527 14.21578404 1254.51175609 C-21.0755789 1254.60206466 -21.0755789 1254.60206466 -36.44609547 1251.13142776 C-37.56194548 1250.88343972 -38.6777955 1250.63545168 -39.82745916 1250.37994885 C-42.47567346 1249.76277628 -45.0821251 1249.06700648 -47.69609547 1248.31892776 C-49.0769231 1247.93100052 -49.0769231 1247.93100052 -50.48564625 1247.53523636 C-74.93337455 1240.48735799 -99.38190595 1228.11477476 -118.44609547 1211.13142776 C-119.66619312 1210.07375198 -119.66619312 1210.07375198 -120.91093922 1208.99470901 C-123.46406634 1206.74811848 -125.96203996 1204.45413223 -128.44609547 1202.13142776 C-129.38195484 1201.26131058 -130.31781422 1200.39119339 -131.28203297 1199.49470901 C-162.93275965 1169.37310414 -184.3769491 1123.17817181 -185.6747372 1079.38344385 C-185.88817227 1069.85927072 -185.85390761 1060.33174465 -185.83149813 1050.8058174 C-185.82382497 1046.11788188 -185.83369251 1041.4299757 -185.84122813 1036.74204445 C-185.85202157 1028.54154605 -185.85176023 1020.34110699 -185.84408665 1012.14060593 C-185.83270667 999.94586851 -185.83855727 987.75118086 -185.84771157 975.55644375 C-185.86348624 953.77259488 -185.86214861 931.98877244 -185.85347483 910.20492107 C-185.84592163 891.14125624 -185.84396111 872.0776011 -185.84754276 853.01393509 C-185.84777192 851.74831873 -185.84800107 850.48270236 -185.84823717 849.17873399 C-185.84917122 844.04090136 -185.85012643 838.90306873 -185.85111646 833.7652361 C-185.85794128 797.9202674 -185.85915526 762.0753027 -185.84792614 726.23033524 C-185.84771539 725.55530252 -185.84750465 724.88026981 -185.84728751 724.18478156 C-185.84385299 713.22386206 -185.84019445 702.26294263 -185.83651699 691.30202321 C-185.82194887 647.83434149 -185.82262505 604.36668749 -185.83720875 560.89900589 C-185.84087255 549.94351072 -185.8445058 538.98801554 -185.84792614 528.03252029 C-185.84813748 527.35787841 -185.84834883 526.68323653 -185.84856658 525.98815096 C-185.85990727 489.53675961 -185.85739598 453.08537023 -185.85037196 416.63397789 C-185.84940984 411.50562541 -185.84847131 406.37727293 -185.84754276 401.24892044 C-185.84730553 399.98623307 -185.8470683 398.7235457 -185.84682388 397.42259507 C-185.84341462 378.3731223 -185.84739641 359.32366028 -185.85498142 340.274189 C-185.86356492 318.60933543 -185.86140247 296.94451238 -185.84513919 275.27966261 C-185.83634205 263.16168418 -185.83573838 251.04377188 -185.84707771 238.92579519 C-185.85382189 230.82346742 -185.84958748 222.72119249 -185.83656341 214.61887253 C-185.82945223 210.00791506 -185.82693421 205.39708862 -185.83778135 200.78613544 C-185.88426108 179.47908466 -185.68494696 158.80840806 -179.75859547 138.13142776 C-179.50295826 137.22537796 -179.24732105 136.31932816 -178.98393726 135.3858223 C-164.86196291 86.95439551 -131.87341606 46.73589654 -88.07329273 21.99666214 C-60.70185032 7.06075868 -31.04306316 -0.04013548 0 0 Z " fill="#FDFDFD" transform="translate(185.44609546661377,-0.13142776489257813)"/>
<path d="M0 0 C1.48721654 -0.00478973 2.97442828 -0.01132653 4.46163043 -0.0194332 C8.53054921 -0.03658356 12.59909639 -0.02905825 16.66802038 -0.01732175 C21.10152806 -0.00895113 25.53496977 -0.02380196 29.96846122 -0.03562677 C37.73296244 -0.05312877 45.49735815 -0.05578286 53.2618742 -0.04862022 C64.80819365 -0.03799709 76.35441111 -0.05020591 87.90071948 -0.06678609 C109.72277323 -0.09726073 131.54478056 -0.1006768 153.36685113 -0.09574004 C170.21805113 -0.09207423 187.06923591 -0.09559381 203.920434 -0.10418892 C206.34172884 -0.10539372 208.76302369 -0.10659612 211.18431854 -0.10779613 C214.83300838 -0.10961064 218.48169823 -0.11142797 222.13038806 -0.11326083 C256.05235221 -0.13011909 289.97431063 -0.1387918 323.89627838 -0.13044739 C325.17497366 -0.13013464 326.45366895 -0.12982188 327.77111257 -0.12949965 C334.25199612 -0.1278881 340.73287964 -0.12619655 347.21376316 -0.12447305 C349.14443742 -0.12395979 349.14443742 -0.12395979 351.1141152 -0.12343615 C353.7169761 -0.12274284 356.31983699 -0.12204578 358.92269788 -0.12134498 C399.42596341 -0.11062985 439.92914187 -0.12649373 480.43239117 -0.16341209 C525.9420013 -0.20484517 571.45155749 -0.22629891 616.96118754 -0.21826112 C621.81378344 -0.21747043 626.66637934 -0.21674734 631.51897526 -0.21606636 C632.7138003 -0.2158849 633.90862534 -0.21570343 635.13965721 -0.21551647 C653.17526969 -0.2131847 671.21082771 -0.22647969 689.24642658 -0.2476902 C709.75802946 -0.27178803 730.26951234 -0.27491922 750.781117 -0.25010987 C762.25788547 -0.23684958 773.73436702 -0.24012171 785.21111255 -0.2672869 C792.88117385 -0.28377672 800.55102024 -0.27837993 808.22106408 -0.25533636 C812.58865448 -0.24282398 816.95568509 -0.23961903 821.32324312 -0.26306303 C825.30505894 -0.28423922 829.28584418 -0.27727087 833.26760587 -0.24885397 C834.69090569 -0.24344467 836.11428992 -0.24784006 837.53750977 -0.26386826 C853.5336858 -0.43156628 866.98578004 4.78204664 878.96339703 15.45426369 C887.3858431 24.2969915 891.08053553 35.47416973 891.05185604 47.43642139 C891.05493499 48.63088473 891.05493499 48.63088473 891.05807614 49.84947863 C891.0637483 52.52831793 891.06228862 55.20710584 891.06087017 57.88595009 C891.06345368 59.82179521 891.0664668 61.7576398 891.06987357 63.69348365 C891.07794846 69.02162312 891.07973342 74.34974913 891.08047104 79.677894 C891.08232074 85.42106766 891.08986764 91.16423432 891.09660625 96.90740395 C891.11019345 109.4693612 891.11621486 122.03131527 891.12061691 134.59327865 C891.12337861 142.43535158 891.12761582 150.27742329 891.13212109 158.11949539 C891.14431412 179.82721549 891.15464884 201.53493426 891.15799618 223.24265766 C891.15821781 224.64627995 891.15843959 226.04990223 891.15866153 227.45352452 C891.15888217 228.86052498 891.15910265 230.26752545 891.15932298 231.67452592 C891.15976553 234.49718265 891.16021264 237.31983938 891.16066265 240.14249611 C891.16077204 240.84235015 891.16088143 241.5422042 891.16099414 242.26326594 C891.16462473 264.95581806 891.18054517 287.64833823 891.20385301 310.34087811 C891.22845358 334.33589706 891.24216239 358.33089697 891.2433641 382.32592899 C891.24428122 395.40476817 891.25004309 408.48356552 891.26818371 421.56239319 C891.28357548 432.6987126 891.28871058 443.83497725 891.28044561 454.97130527 C891.27653589 460.65349282 891.27748451 466.33557006 891.29150295 472.01774406 C891.30422228 477.22090484 891.30306155 482.42387219 891.29091224 487.62703262 C891.28895185 489.50793877 891.29204945 491.38885853 891.3007566 493.26974555 C891.37855869 511.21441743 891.37855869 511.21441743 887.92042828 519.50895119 C887.56722515 520.43707619 887.21402203 521.36520119 886.85011578 522.32145119 C881.74416285 532.91157578 874.34163035 540.18135911 863.92042828 545.50895119 C863.3132348 545.83992735 862.70604131 546.17090352 862.08044803 546.51190927 C853.51228034 550.46688345 843.28429647 549.79526727 834.07298565 549.76622009 C832.58659162 549.76891749 831.10019896 549.77248758 829.61380887 549.77684456 C825.53796466 549.78626589 821.46221026 549.78331387 817.38636175 549.77828902 C812.94881508 549.77501441 808.51128728 549.78331153 804.07374668 549.79010737 C796.29919222 549.80040436 788.52466265 549.80325168 780.75010204 549.80119514 C769.18906011 549.79814447 757.62804573 549.80647052 746.06700915 549.8169444 C724.21875793 549.8362852 702.3705161 549.84191261 680.52225733 549.84305851 C663.6533314 549.84397748 646.78440916 549.84809356 629.91548443 549.85445976 C625.0604194 549.85625483 620.20535438 549.85803446 615.35028934 549.85980952 C614.14333054 549.86025161 612.93637174 549.86069371 611.69283842 549.8611492 C577.74515266 549.87345699 543.79746817 549.88135037 509.84978008 549.88046265 C507.92999997 549.88041591 507.92999997 549.88041591 505.97143643 549.88036823 C499.48453143 549.88020201 492.99762644 549.88000393 486.51072145 549.87979881 C485.2223846 549.87975892 483.93404776 549.87971903 482.60667041 549.87967793 C480.00134151 549.87959706 477.39601261 549.87951346 474.79068372 549.87942715 C434.24081861 549.87820118 393.69098694 549.89322351 353.1411314 549.92057228 C307.59093969 549.95128082 262.04076993 549.96850559 216.49056721 549.96664584 C211.63550218 549.96649657 206.78043715 549.96639916 201.92537212 549.9663372 C200.72991696 549.9663139 199.53446181 549.96629059 198.30278073 549.96626657 C179.05149053 549.96620498 159.80022933 549.97898519 140.54894775 549.99620173 C121.20970512 550.01313957 101.87050499 550.01514649 82.53125906 550.00198309 C71.03795275 549.99458219 59.54477539 549.99828599 48.0514827 550.01786777 C40.37671636 550.0298406 32.70204372 550.0273068 25.02728174 550.01292677 C20.65295038 550.0051411 16.2788691 550.00367707 11.90455508 550.01984148 C7.92255524 550.03442748 3.94101312 550.03049387 -0.04096654 550.01199374 C-1.47001975 550.00856022 -2.89910905 550.01177827 -4.32812545 550.02259616 C-16.5437077 550.10885285 -26.10879596 547.62777557 -36.07957172 540.50895119 C-37.06957172 539.82832619 -38.05957172 539.14770119 -39.07957172 538.44645119 C-47.63111576 530.9463265 -53.07706794 519.64870053 -54.30972724 508.41064121 C-54.67772779 502.64360845 -54.61286344 496.86980794 -54.58077717 491.09398842 C-54.58467529 489.14298574 -54.59031982 487.19198591 -54.59754807 485.24099272 C-54.61224671 479.90802539 -54.60215477 474.57535501 -54.58781135 469.24239743 C-54.57667384 463.48026681 -54.58865326 457.7181769 -54.59765339 451.95604897 C-54.61156812 440.68003282 -54.60404305 429.40412885 -54.58897781 418.12811808 C-54.57209847 404.99337324 -54.57533033 391.85865619 -54.57907189 378.72390386 C-54.58551699 354.58072122 -54.56936065 330.43759428 -54.54388425 306.29442682 C-54.5207626 284.26606268 -54.51538475 262.23776418 -54.52561665 240.20939064 C-54.52821878 234.56632077 -54.53080382 228.92325089 -54.53321457 223.28018093 C-54.53351202 222.58539593 -54.53380946 221.89061093 -54.53411592 221.17477184 C-54.54173378 202.75140407 -54.53525701 184.328042 -54.52451855 165.90467662 C-54.52299273 163.26359443 -54.52147237 160.62251224 -54.51995754 157.98143005 C-54.51919973 156.68201197 -54.51844191 155.38259388 -54.51766114 154.04379949 C-54.51291976 144.88965429 -54.51476865 135.73552392 -54.51902294 126.58137894 C-54.52395033 115.42694213 -54.5179617 104.27257321 -54.49812865 93.11815194 C-54.48826003 87.42781639 -54.48314703 81.73758418 -54.49102116 76.04724312 C-54.49808347 70.83698582 -54.49126028 65.62693696 -54.47341753 60.41670712 C-54.46937671 58.53335413 -54.47036675 56.6499821 -54.47693639 54.76663623 C-54.52896528 38.45342767 -52.46954948 25.94825561 -40.70457172 13.69645119 C-28.95277068 2.60837312 -15.90293305 -0.10753708 0 0 Z " fill="#8BC574" transform="translate(208.079571723938,336.4910488128662)"/>
<path d="M0 0 C1.48721654 -0.00478973 2.97442828 -0.01132653 4.46163043 -0.0194332 C8.53054921 -0.03658356 12.59909639 -0.02905825 16.66802038 -0.01732175 C21.10152806 -0.00895113 25.53496977 -0.02380196 29.96846122 -0.03562677 C37.73296244 -0.05312877 45.49735815 -0.05578286 53.2618742 -0.04862022 C64.80819365 -0.03799709 76.35441111 -0.05020591 87.90071948 -0.06678609 C109.72277323 -0.09726073 131.54478056 -0.1006768 153.36685113 -0.09574004 C170.21805113 -0.09207423 187.06923591 -0.09559381 203.920434 -0.10418892 C206.34172884 -0.10539372 208.76302369 -0.10659612 211.18431854 -0.10779613 C214.83300838 -0.10961064 218.48169823 -0.11142797 222.13038806 -0.11326083 C256.05235221 -0.13011909 289.97431063 -0.1387918 323.89627838 -0.13044739 C325.17497366 -0.13013464 326.45366895 -0.12982188 327.77111257 -0.12949965 C334.25199612 -0.1278881 340.73287964 -0.12619655 347.21376316 -0.12447305 C349.14443742 -0.12395979 349.14443742 -0.12395979 351.1141152 -0.12343615 C353.7169761 -0.12274284 356.31983699 -0.12204578 358.92269788 -0.12134498 C399.42596341 -0.11062985 439.92914187 -0.12649373 480.43239117 -0.16341209 C525.9420013 -0.20484517 571.45155749 -0.22629891 616.96118754 -0.21826112 C621.81378344 -0.21747043 626.66637934 -0.21674734 631.51897526 -0.21606636 C632.7138003 -0.2158849 633.90862534 -0.21570343 635.13965721 -0.21551647 C653.17526969 -0.2131847 671.21082771 -0.22647969 689.24642658 -0.2476902 C709.75802946 -0.27178803 730.26951234 -0.27491922 750.781117 -0.25010987 C762.25788547 -0.23684958 773.73436702 -0.24012171 785.21111255 -0.2672869 C792.88117385 -0.28377672 800.55102024 -0.27837993 808.22106408 -0.25533636 C812.58865448 -0.24282398 816.95568509 -0.23961903 821.32324312 -0.26306303 C825.30505894 -0.28423922 829.28584418 -0.27727087 833.26760587 -0.24885397 C834.69090569 -0.24344467 836.11428992 -0.24784006 837.53750977 -0.26386826 C853.5336858 -0.43156628 866.98578004 4.78204664 878.96339703 15.45426369 C887.3858431 24.2969915 891.08053553 35.47416973 891.05185604 47.43642139 C891.05493499 48.63088473 891.05493499 48.63088473 891.05807614 49.84947863 C891.0637483 52.52831793 891.06228862 55.20710584 891.06087017 57.88595009 C891.06345368 59.82179521 891.0664668 61.7576398 891.06987357 63.69348365 C891.07794846 69.02162312 891.07973342 74.34974913 891.08047104 79.677894 C891.08232074 85.42106766 891.08986764 91.16423432 891.09660625 96.90740395 C891.11019345 109.4693612 891.11621486 122.03131527 891.12061691 134.59327865 C891.12337861 142.43535158 891.12761582 150.27742329 891.13212109 158.11949539 C891.14431412 179.82721549 891.15464884 201.53493426 891.15799618 223.24265766 C891.15821781 224.64627995 891.15843959 226.04990223 891.15866153 227.45352452 C891.15888217 228.86052498 891.15910265 230.26752545 891.15932298 231.67452592 C891.15976553 234.49718265 891.16021264 237.31983938 891.16066265 240.14249611 C891.16077204 240.84235015 891.16088143 241.5422042 891.16099414 242.26326594 C891.16462473 264.95581806 891.18054517 287.64833823 891.20385301 310.34087811 C891.22845358 334.33589706 891.24216239 358.33089697 891.2433641 382.32592899 C891.24428122 395.40476817 891.25004309 408.48356552 891.26818371 421.56239319 C891.28357548 432.6987126 891.28871058 443.83497725 891.28044561 454.97130527 C891.27653589 460.65349282 891.27748451 466.33557006 891.29150295 472.01774406 C891.30422228 477.22090484 891.30306155 482.42387219 891.29091224 487.62703262 C891.28895185 489.50793877 891.29204945 491.38885853 891.3007566 493.26974555 C891.37855869 511.21441743 891.37855869 511.21441743 887.92042828 519.50895119 C887.56722515 520.43707619 887.21402203 521.36520119 886.85011578 522.32145119 C881.74416285 532.91157578 874.34163035 540.18135911 863.92042828 545.50895119 C863.3132348 545.83992735 862.70604131 546.17090352 862.08044803 546.51190927 C853.51228034 550.46688345 843.28429647 549.79526727 834.07298565 549.76622009 C832.58659162 549.76891749 831.10019896 549.77248758 829.61380887 549.77684456 C825.53796466 549.78626589 821.46221026 549.78331387 817.38636175 549.77828902 C812.94881508 549.77501441 808.51128728 549.78331153 804.07374668 549.79010737 C796.29919222 549.80040436 788.52466265 549.80325168 780.75010204 549.80119514 C769.18906011 549.79814447 757.62804573 549.80647052 746.06700915 549.8169444 C724.21875793 549.8362852 702.3705161 549.84191261 680.52225733 549.84305851 C663.6533314 549.84397748 646.78440916 549.84809356 629.91548443 549.85445976 C625.0604194 549.85625483 620.20535438 549.85803446 615.35028934 549.85980952 C614.14333054 549.86025161 612.93637174 549.86069371 611.69283842 549.8611492 C577.74515266 549.87345699 543.79746817 549.88135037 509.84978008 549.88046265 C507.92999997 549.88041591 507.92999997 549.88041591 505.97143643 549.88036823 C499.48453143 549.88020201 492.99762644 549.88000393 486.51072145 549.87979881 C485.2223846 549.87975892 483.93404776 549.87971903 482.60667041 549.87967793 C480.00134151 549.87959706 477.39601261 549.87951346 474.79068372 549.87942715 C434.24081861 549.87820118 393.69098694 549.89322351 353.1411314 549.92057228 C307.59093969 549.95128082 262.04076993 549.96850559 216.49056721 549.96664584 C211.63550218 549.96649657 206.78043715 549.96639916 201.92537212 549.9663372 C200.72991696 549.9663139 199.53446181 549.96629059 198.30278073 549.96626657 C179.05149053 549.96620498 159.80022933 549.97898519 140.54894775 549.99620173 C121.20970512 550.01313957 101.87050499 550.01514649 82.53125906 550.00198309 C71.03795275 549.99458219 59.54477539 549.99828599 48.0514827 550.01786777 C40.37671636 550.0298406 32.70204372 550.0273068 25.02728174 550.01292677 C20.65295038 550.0051411 16.2788691 550.00367707 11.90455508 550.01984148 C7.92255524 550.03442748 3.94101312 550.03049387 -0.04096654 550.01199374 C-1.47001975 550.00856022 -2.89910905 550.01177827 -4.32812545 550.02259616 C-16.5437077 550.10885285 -26.10879596 547.62777557 -36.07957172 540.50895119 C-37.06957172 539.82832619 -38.05957172 539.14770119 -39.07957172 538.44645119 C-47.63111576 530.9463265 -53.07706794 519.64870053 -54.30972724 508.41064121 C-54.67772779 502.64360845 -54.61286344 496.86980794 -54.58077717 491.09398842 C-54.58467529 489.14298574 -54.59031982 487.19198591 -54.59754807 485.24099272 C-54.61224671 479.90802539 -54.60215477 474.57535501 -54.58781135 469.24239743 C-54.57667384 463.48026681 -54.58865326 457.7181769 -54.59765339 451.95604897 C-54.61156812 440.68003282 -54.60404305 429.40412885 -54.58897781 418.12811808 C-54.57209847 404.99337324 -54.57533033 391.85865619 -54.57907189 378.72390386 C-54.58551699 354.58072122 -54.56936065 330.43759428 -54.54388425 306.29442682 C-54.5207626 284.26606268 -54.51538475 262.23776418 -54.52561665 240.20939064 C-54.52821878 234.56632077 -54.53080382 228.92325089 -54.53321457 223.28018093 C-54.53351202 222.58539593 -54.53380946 221.89061093 -54.53411592 221.17477184 C-54.54173378 202.75140407 -54.53525701 184.328042 -54.52451855 165.90467662 C-54.52299273 163.26359443 -54.52147237 160.62251224 -54.51995754 157.98143005 C-54.51919973 156.68201197 -54.51844191 155.38259388 -54.51766114 154.04379949 C-54.51291976 144.88965429 -54.51476865 135.73552392 -54.51902294 126.58137894 C-54.52395033 115.42694213 -54.5179617 104.27257321 -54.49812865 93.11815194 C-54.48826003 87.42781639 -54.48314703 81.73758418 -54.49102116 76.04724312 C-54.49808347 70.83698582 -54.49126028 65.62693696 -54.47341753 60.41670712 C-54.46937671 58.53335413 -54.47036675 56.6499821 -54.47693639 54.76663623 C-54.52896528 38.45342767 -52.46954948 25.94825561 -40.70457172 13.69645119 C-28.95277068 2.60837312 -15.90293305 -0.10753708 0 0 Z M87.92042828 54.50895119 C87.26042828 60.44895119 86.60042828 66.38895119 85.92042828 72.50895119 C84.93042828 75.14895119 83.94042828 77.78895119 82.92042828 80.50895119 C82.56722515 81.54277931 82.21402203 82.57660744 81.85011578 83.64176369 C74.50356709 104.48419441 59.4943289 121.25287433 39.92042828 131.50895119 C37.96693997 132.37422937 36.02778632 133.11891003 34.00245953 133.79801369 C31.87317438 134.49548461 31.87317438 134.49548461 29.68214703 135.46988869 C19.9696406 139.48781514 12.11803992 139.82930944 0.92042828 141.50895119 C0.92042828 229.94895119 0.92042828 318.38895119 0.92042828 409.50895119 C6.86042828 410.16895119 12.80042828 410.82895119 18.92042828 411.50895119 C40.1603773 416.06036883 59.43737541 428.60975324 71.95949078 446.43863869 C82.18353421 462.44680231 86.46483235 476.58620417 87.92042828 495.50895119 C305.72042828 495.50895119 523.52042828 495.50895119 747.92042828 495.50895119 C748.91042828 489.23895119 749.90042828 482.96895119 750.92042828 476.50895119 C754.51289158 462.13909795 760.94843771 449.51507411 770.92042828 438.50895119 C771.65777203 437.67879494 772.39511578 436.84863869 773.15480328 435.99332619 C790.30798927 417.71901693 811.26226693 411.85734751 835.92042828 409.50895119 C835.92042828 321.06895119 835.92042828 232.62895119 835.92042828 141.50895119 C825.52542828 140.02395119 825.52542828 140.02395119 814.92042828 138.50895119 C789.92730389 131.62108226 771.7601251 117.04441445 758.71339703 94.83316994 C757.30894289 92.22926912 756.21318394 89.94177166 755.35792828 87.13395119 C755.12202984 86.38113869 754.8861314 85.62832619 754.64308453 84.85270119 C754.40460796 84.07926369 754.1661314 83.30582619 753.92042828 82.50895119 C753.38262298 80.88266916 752.8410471 79.25762846 752.29542828 77.63395119 C749.47801326 69.18170613 749.59444138 65.29316092 748.92042828 54.50895119 C530.79042828 54.50895119 312.66042828 54.50895119 87.92042828 54.50895119 Z " fill="#358237" transform="translate(208.079571723938,336.4910488128662)"/>
<path d="M0 0 C1.97742539 0.66427131 3.97629821 1.26834998 5.9921875 1.8046875 C47.33077296 12.96453376 80.31504982 47.05017215 101.13427734 82.94726562 C106.28436624 92.00021101 110.34534626 101.27497505 114.01171875 111.01171875 C114.38039063 111.89730469 114.7490625 112.78289062 115.12890625 113.6953125 C118.19189439 121.30529465 119.58171247 129.21130134 121.08203125 137.2421875 C121.64109231 140.22414419 122.2822139 143.14948207 123.05859375 146.08203125 C134.05267355 188.98458465 123.32929638 239.64953449 103.01171875 278.01171875 C102.67688477 278.65866699 102.34205078 279.30561523 101.99707031 279.97216797 C85.78601676 311.17805373 61.48479558 335.65581221 31.01171875 353.01171875 C30.21507812 353.511875 29.4184375 354.01203125 28.59765625 354.52734375 C25.91469662 356.06741121 23.29563706 357.1534506 20.38671875 358.19921875 C19.44570313 358.54339844 18.5046875 358.88757813 17.53515625 359.2421875 C15.01171875 360.01171875 15.01171875 360.01171875 12.01171875 360.01171875 C12.01171875 360.67171875 12.01171875 361.33171875 12.01171875 362.01171875 C-8.93668733 368.13174962 -29.17193915 370.7290265 -50.98828125 370.01171875 C-51.75462891 369.99093262 -52.52097656 369.97014648 -53.31054688 369.94873047 C-62.20886924 369.68130538 -70.436761 368.52031335 -78.98828125 366.01171875 C-80.13167969 365.71136719 -81.27507812 365.41101563 -82.453125 365.1015625 C-90.04798259 363.0647223 -96.94742214 360.48558178 -103.98828125 357.01171875 C-105.20108404 356.45152258 -106.41467734 355.89303579 -107.62890625 355.3359375 C-123.26717465 348.0187532 -136.67681042 338.05554891 -148.98828125 326.01171875 C-149.83648438 325.21378906 -150.6846875 324.41585938 -151.55859375 323.59375 C-172.04189982 303.91308131 -187.38193937 277.95956284 -195.98828125 251.01171875 C-196.28347656 250.109375 -196.57867187 249.20703125 -196.8828125 248.27734375 C-197.63895175 245.86740262 -198.32494255 243.44884714 -198.98828125 241.01171875 C-199.29378906 239.91730469 -199.59929687 238.82289063 -199.9140625 237.6953125 C-201.03259006 233.48463925 -202.04300004 229.26418694 -202.98828125 225.01171875 C-203.26986084 223.75560791 -203.26986084 223.75560791 -203.55712891 222.47412109 C-206.32710135 209.62981292 -207.34922388 197.1104197 -207.30078125 184.01171875 C-207.29832397 183.33182892 -207.2958667 182.65193909 -207.29333496 181.95144653 C-207.11905474 155.03044649 -207.11905474 155.03044649 -204.23828125 142.63671875 C-204.06417725 141.85490234 -203.89007324 141.07308594 -203.71069336 140.26757812 C-201.09710107 128.78664608 -198.46622075 117.30663831 -193.2578125 106.69140625 C-190.84582203 101.60025099 -188.95881825 96.28604969 -186.98828125 91.01171875 C-186.32828125 91.01171875 -185.66828125 91.01171875 -184.98828125 91.01171875 C-184.84712891 89.97337891 -184.84712891 89.97337891 -184.703125 88.9140625 C-177.52750114 59.7802454 -144.13012135 31.3970892 -119.95727539 16.51098633 C-84.48213731 -4.81354669 -39.95016108 -13.48380594 0 0 Z " fill="#358237" transform="translate(666.98828125,429.98828125)"/>
<path d="M0 0 C1.23234375 0.00386719 2.4646875 0.00773437 3.734375 0.01171875 C5.01828125 0.03621094 6.3021875 0.06070312 7.625 0.0859375 C8.90890625 0.08722656 10.1928125 0.08851563 11.515625 0.08984375 C22.20270606 0.19045435 22.20270606 0.19045435 25.625 2.4609375 C26.90361615 5.01816979 26.73836609 6.82830852 26.72265625 9.6875 C26.71782227 11.234375 26.71782227 11.234375 26.71289062 12.8125 C26.70032227 14.43285156 26.70032227 14.43285156 26.6875 16.0859375 C26.68298828 17.17390625 26.67847656 18.261875 26.67382812 19.3828125 C26.66201776 22.07557539 26.64554778 24.76822938 26.625 27.4609375 C27.40101563 27.57308594 28.17703125 27.68523437 28.9765625 27.80078125 C45.3807148 30.79581144 59.31983408 41.91937296 69.0859375 55.203125 C76.63140108 66.27235837 76.63140108 66.27235837 75.625 73.4609375 C73.15121986 77.17160771 71.90408038 77.20282553 67.6875 78.3359375 C62.18361147 79.90673754 57.246937 81.89759425 52.16015625 84.5078125 C49.01112729 85.69173094 46.95995178 85.99311066 43.625 85.4609375 C41.46484375 83.1953125 41.46484375 83.1953125 39.5625 80.2109375 C35.78685876 74.37374981 31.89946619 70.88432736 25.6875 67.7734375 C24.46740234 67.14888672 24.46740234 67.14888672 23.22265625 66.51171875 C13.14488582 62.43514695 0.26691475 63.30791502 -9.71484375 67.13671875 C-16.07961629 70.3050857 -20.89939818 74.78766309 -23.75390625 81.359375 C-25.71249512 87.9865499 -24.61227397 94.43748512 -21.375 100.4609375 C-14.19866857 110.18370912 0.05939252 113.08925192 11.1875 116.1484375 C12.53351119 116.52820668 13.87921618 116.90906285 15.22460938 117.29101562 C20.06479179 118.65924807 24.90644187 120.01768767 29.77709961 121.27392578 C47.75920753 125.93247101 62.58238542 137.16046815 72.75 152.7109375 C77.41912234 161.48554202 79.35320789 169.7335484 79.25 179.6484375 C79.23960693 181.28437866 79.23960693 181.28437866 79.22900391 182.95336914 C78.97422636 192.47937488 76.96094933 200.03709087 72.625 208.4609375 C72.13386719 209.42128906 71.64273438 210.38164063 71.13671875 211.37109375 C62.93377249 226.03026726 49.34026847 235.86262303 33.625 241.4609375 C31.30093797 241.85373672 28.96782045 242.20258136 26.625 242.4609375 C26.65118408 243.10119873 26.67736816 243.74145996 26.7043457 244.40112305 C26.80861281 247.31664252 26.87341753 250.23176948 26.9375 253.1484375 C26.97939453 254.15583984 27.02128906 255.16324219 27.06445312 256.20117188 C27.1375779 260.63253353 27.04320848 263.65339684 24.984375 267.62890625 C19.4273645 270.65941547 13.77964361 270.18018424 7.5625 270.0859375 C5.6434082 270.11494141 5.6434082 270.11494141 3.68554688 270.14453125 C2.45771484 270.13808594 1.22988281 270.13164063 -0.03515625 270.125 C-1.15543213 270.11936035 -2.27570801 270.1137207 -3.42993164 270.10791016 C-6.375 269.4609375 -6.375 269.4609375 -8.74682617 267.25073242 C-10.52710725 264.20030929 -10.84726841 262.65041186 -10.765625 259.16015625 C-10.75273438 258.18369141 -10.73984375 257.20722656 -10.7265625 256.20117188 C-10.67628906 254.69006836 -10.67628906 254.69006836 -10.625 253.1484375 C-10.60695313 252.12169922 -10.58890625 251.09496094 -10.5703125 250.03710938 C-10.52331063 247.51075865 -10.45762272 244.98633281 -10.375 242.4609375 C-11.53386719 242.368125 -12.69273437 242.2753125 -13.88671875 242.1796875 C-18.47103381 241.59896054 -22.11097586 240.07564068 -26.1875 237.9609375 C-26.88182129 237.60346436 -27.57614258 237.24599121 -28.29150391 236.87768555 C-41.88505767 229.64068254 -54.65627716 217.10086798 -60.375 202.4609375 C-61 198.5859375 -61 198.5859375 -60.375 195.4609375 C-52.47552498 189.73800377 -38.25354688 183.0998016 -28.375 184.4609375 C-26.125 185.8984375 -26.125 185.8984375 -24.375 188.4609375 C-17.6936487 197.72986417 -11.70585045 202.90899105 -0.375 205.4609375 C12.23189337 206.22309855 24.49722088 206.14189103 34.625 197.4609375 C40.13792559 190.05529087 41.50331163 183.67101089 40.625 174.4609375 C36.5749978 166.06093293 28.9394559 162.69548892 20.625 159.4609375 C15.30335601 157.74343871 9.90632381 156.32861337 4.50146484 154.89941406 C-20.3864832 148.28537171 -40.63774203 140.93515058 -54.84765625 118.09375 C-62.48464682 104.22105153 -64.69250253 87.5750925 -60.8125 72.2734375 C-55.78142177 56.67005853 -44.6820448 42.60720741 -30.625 34.0234375 C-27.375 32.4609375 -27.375 32.4609375 -23.375 32.4609375 C-23.375 31.8009375 -23.375 31.1409375 -23.375 30.4609375 C-21.96103098 29.95335888 -20.54368271 29.45518825 -19.125 28.9609375 C-17.94164062 28.54328125 -17.94164062 28.54328125 -16.734375 28.1171875 C-14.375 27.4609375 -14.375 27.4609375 -10.375 27.4609375 C-10.39594727 26.78514648 -10.41689453 26.10935547 -10.43847656 25.41308594 C-10.52171643 22.34585496 -10.57368466 19.27886168 -10.625 16.2109375 C-10.65851562 15.14746094 -10.69203125 14.08398438 -10.7265625 12.98828125 C-10.73945312 11.96347656 -10.75234375 10.93867188 -10.765625 9.8828125 C-10.78657227 8.94018555 -10.80751953 7.99755859 -10.82910156 7.02636719 C-9.73069015 0.82093324 -5.67532612 -0.04139611 0 0 Z " fill="#8BC474" transform="translate(618.375,478.5390625)"/>
<path d="M0 0 C11.48551347 7.84816113 18.5902285 17.39710329 22.375 30.875 C23.8253758 45.44621734 21.01649687 57.86312721 11.65625 69.3203125 C3.16063924 78.83423277 -7.94539122 84.98729718 -20.734375 86.16015625 C-32.60975981 86.67475626 -43.49974817 83.66239191 -52.6015625 75.8125 C-61.51374831 67.27882401 -68.55447681 57.80621905 -68.86328125 45.0234375 C-68.89380615 43.0990414 -68.91833125 41.17454272 -68.9375 39.25 C-68.96650391 38.30253906 -68.99550781 37.35507812 -69.02539062 36.37890625 C-69.12435983 25.2486775 -65.0771215 16.98337486 -57.625 8.875 C-41.73613041 -6.7140796 -19.9133071 -11.88730659 0 0 Z " fill="#368237" transform="translate(357.625,573.125)"/>
<path d="M0 0 C5.56368289 4.03083148 10.1371336 8.66866085 13 15 C13 15.99 13 16.98 13 18 C13.66 18 14.32 18 15 18 C18.16801648 27.78690805 18.32476018 36.84823738 18 47 C17.34 47 16.68 47 16 47 C16.12375 47.78375 16.2475 48.5675 16.375 49.375 C15.41581938 58.64707929 7.58132152 66.8736573 1 73 C-10.34169729 81.23747128 -21.0739854 83.82456665 -35 83 C-47.99008155 80.8226852 -58.30281895 73.4898406 -66 63 C-67.99301898 59.43034394 -69.57004216 55.82513723 -71 52 C-71.36222656 51.27683594 -71.72445312 50.55367187 -72.09765625 49.80859375 C-75.31375746 39.7983047 -74.31544524 25.85026 -69.609375 16.5703125 C-62.68725546 5.51508274 -54.31082454 -2.43788811 -42 -7 C-40.948125 -7.4125 -39.89625 -7.825 -38.8125 -8.25 C-24.29599156 -11.10570658 -12.25167874 -7.81319632 0 0 Z " fill="#368338" transform="translate(946,576)"/>
</svg>
